<?xml version="1.0" encoding="UTF-8" standalone="no"?>
<!-- Created with Inkscape (http://www.inkscape.org/) -->

<svg
   xmlns:dc="http://purl.org/dc/elements/1.1/"
   xmlns:cc="http://creativecommons.org/ns#"
   xmlns:rdf="http://www.w3.org/1999/02/22-rdf-syntax-ns#"
   xmlns:svg="http://www.w3.org/2000/svg"
   xmlns="http://www.w3.org/2000/svg"
   xmlns:sodipodi="http://sodipodi.sourceforge.net/DTD/sodipodi-0.dtd"
   xmlns:inkscape="http://www.inkscape.org/namespaces/inkscape"
   width="210mm"
   height="297mm"
   viewBox="0 0 210 297"
   version="1.1"
   id="svg8252"
   inkscape:version="0.92.1 r15371"
   sodipodi:docname="engrenagem.svg">
  <defs
     id="defs8246" />
  <sodipodi:namedview
     id="base"
     pagecolor="#ffffff"
     bordercolor="#666666"
     borderopacity="1.0"
     inkscape:pageopacity="0.0"
     inkscape:pageshadow="2"
     inkscape:zoom="3.959798"
     inkscape:cx="274.73278"
     inkscape:cy="662.79495"
     inkscape:document-units="mm"
     inkscape:current-layer="layer1"
     showgrid="false"
     inkscape:window-width="1304"
     inkscape:window-height="745"
     inkscape:window-x="-8"
     inkscape:window-y="-8"
     inkscape:window-maximized="1" />
  <metadata
     id="metadata8249">
    <rdf:RDF>
      <cc:Work
         rdf:about="">
        <dc:format>image/svg+xml</dc:format>
        <dc:type
           rdf:resource="http://purl.org/dc/dcmitype/StillImage" />
        <dc:title></dc:title>
      </cc:Work>
    </rdf:RDF>
  </metadata>
  <g
     inkscape:label="Camada 1"
     inkscape:groupmode="layer"
     id="layer1">
    <g
       id="g8814"
       transform="matrix(0.26458333,0,0,0.26458333,71.028996,101.45057)">
      <path
         id="path8797"
         d="m 94.081,40.744 h -3.953 c -3.137,0 -4.23,-1.605 -4.596,-2.456 -0.046,-0.141 -0.102,-0.28 -0.149,-0.423 -0.013,-0.045 -0.022,-0.091 -0.022,-0.091 l -0.012,10e-4 c -0.446,-1.295 -0.969,-2.557 -1.555,-3.791 -0.012,-0.029 -0.006,-0.048 -0.02,-0.081 -1.197,-2.867 0.397,-4.82 0.938,-5.375 l 0.156,-0.154 c 0.004,-0.005 0.023,-0.022 0.023,-0.022 H 84.89 l 2.402,-2.404 c 2.375,-2.377 1.005,-4.426 0.321,-5.185 l -8.074,-8.075 c -2.293,-2.292 -4.314,-0.806 -4.955,-0.213 l -0.204,0.205 -0.006,0.007 -3.592,3.589 c -10e-4,0.001 -10e-4,0.001 -10e-4,0.001 -1.599,1.597 -3.778,0.47 -3.778,0.47 v 0.005 c -1.26,-0.637 -2.557,-1.186 -3.88,-1.674 -0.069,-0.049 -0.203,-0.107 -0.41,-0.172 -3.354,-1.067 -3.307,-3.674 -3.307,-3.674 v -3.69 c 0,-3.679 -2.967,-4.54 -4.945,-4.711 h -8.612 c -1.976,0.171 -4.944,1.032 -4.944,4.711 0,0.169 -0.007,0.291 -0.013,0.438 v 3.951 c -0.107,0.754 -0.616,1.955 -2.676,2.752 -0.02,0.007 -0.028,0.014 -0.047,0.023 -1.396,0.47 -2.752,1.034 -4.078,1.666 -0.045,0.017 -0.076,0.02 -0.123,0.04 -2.761,1.167 -4.677,-0.381 -5.221,-0.905 l -2.455,-2.455 c -0.004,-0.004 -0.005,-0.006 -0.009,-0.008 -2.385,-2.386 -4.35,-1.376 -5.289,-0.595 l -8.236,8.238 c -0.673,0.73 -2.22,2.795 -0.296,4.718 0.002,0.002 0.002,0.003 0.005,0.008 l 3.501,3.5 c 0.002,0 0.002,0.001 0.002,0.001 2.022,2.022 0.557,4.977 0.557,4.977 l 0.015,0.004 c -0.623,1.302 -1.174,2.636 -1.642,4.007 -0.008,0.022 -0.02,0.035 -0.028,0.06 -0.983,2.535 -3.286,2.77 -4.001,2.782 H 5.747 c -1.073,0.071 -2.765,0.484 -2.765,2.449 v 13.26 c 0.081,0.969 0.63,2.804 3.632,2.804 h 4.19 c 0.652,0.01 3.128,0.196 3.948,2.42 10e-4,0.003 0.003,0.005 0.005,0.01 0.534,1.625 1.179,3.203 1.929,4.729 l -0.008,0.003 c 0,0 0.012,0.019 0.03,0.043 0.063,0.132 0.126,0.262 0.192,0.391 0.325,0.798 0.687,2.619 -1.413,4.72 -0.002,0.001 -0.002,0.003 -0.006,0.006 l -3.483,3.482 c -0.617,0.735 -1.37,2.122 0.043,3.536 0,0 0,0 0,0.001 l 9.53,9.531 h 0.002 c 0,0 1.905,1.627 4.272,-0.731 l 3.32,-3.32 c 0.931,-0.758 2.706,-1.657 5.077,-0.357 0.223,0.12 0.401,0.192 0.534,0.222 0.969,0.436 1.955,0.84 2.961,1.189 l -0.012,0.015 c 0,0 0.051,0.01 0.102,0.021 0.261,0.09 0.519,0.183 0.78,0.27 0.937,0.422 2.285,1.435 2.285,3.843 v 4.938 c 0.012,0.573 0.238,2.528 2.381,2.952 h 12.399 c 3.747,0 3.734,-3.41 3.734,-3.41 v -4.723 c 0.062,-0.916 0.496,-2.802 2.945,-3.815 0.031,-0.011 0.043,-0.023 0.072,-0.038 1.177,-0.408 2.328,-0.88 3.457,-1.408 0.065,-0.023 0.12,-0.034 0.192,-0.064 3.035,-1.271 5.329,0.636 5.329,0.636 l 2.72,2.718 h 0.001 c 0,0 2.749,2.918 5.394,0.271 0.006,-0.006 0.01,-0.006 0.015,-0.012 l 7.827,-7.83 c 0.003,-10e-4 0.003,-10e-4 0.003,-10e-4 2.022,-2.021 1.5,-3.622 0.835,-4.535 l -3.63,-3.629 c -1.704,-1.703 -1.584,-3.34 -1.246,-4.339 0.156,-0.304 0.304,-0.61 0.449,-0.916 0.03,-0.048 0.054,-0.079 0.054,-0.079 L 83.806,65.99 c 0.563,-1.19 1.067,-2.405 1.503,-3.651 0.014,-0.036 0.031,-0.055 0.045,-0.096 1.211,-3.055 4.629,-2.982 4.629,-2.982 h 3.392 c 0.897,-0.029 3.94,-0.443 3.94,-4.769 V 45.29 c 0,-3.778 -2.136,-4.45 -3.234,-4.546 z M 50.138,70.921 C 38.609,70.921 29.227,61.536 29.227,50 c 0,-11.534 9.382,-20.918 20.911,-20.918 11.543,0 20.933,9.384 20.933,20.918 -0.001,11.536 -9.39,20.921 -20.933,20.921 z"
         inkscape:connector-curvature="0"
         style="fill:#000000" />
    </g>
  </g>
</svg>
